<svg id="Layer_1" data-name="Layer 1" xmlns="http://www.w3.org/2000/svg" viewBox="0 0 266.56 247.21"><defs><style>.cls-1{fill:#6d6e71;stroke:#231f20;}.cls-1,.cls-4{stroke-miterlimit:10;}.cls-2,.cls-4{fill:#231f20;}.cls-3{fill:#fff;}.cls-4{stroke:#fff;stroke-width:0.75px;}</style></defs><title>cdplayer</title><path class="cls-1" d="M172.62,348.66V467.55H291.51V348.66Zm59.44,77.17a17.73,17.73,0,1,1,17.73-17.73A17.73,17.73,0,0,1,232.06,425.83Z" transform="translate(-143.28 -220.83)"/><path class="cls-1" d="M232.06,351.86a55.58,55.58,0,1,0,55.58,55.58A55.57,55.57,0,0,0,232.06,351.86Zm0,73.3a17.72,17.72,0,1,1,17.73-17.72A17.72,17.72,0,0,1,232.06,425.16Z" transform="translate(-143.28 -220.83)"/><rect class="cls-1" x="0.5" y="0.5" width="265.56" height="145.56"/><rect class="cls-1" x="196.99" y="155.59" width="41.72" height="91.12"/><rect class="cls-2" x="202.89" y="196.61" width="9.89" height="5.76"/><rect class="cls-2" x="204.59" y="207.12" width="9.89" height="5.76"/><rect class="cls-2" x="221.31" y="207.12" width="9.89" height="5.76"/><rect class="cls-2" x="204.61" y="186.6" width="9.89" height="5.76"/><rect class="cls-2" x="221.32" y="186.6" width="9.89" height="5.76"/><rect class="cls-2" x="222.83" y="196.61" width="9.89" height="5.76"/><rect class="cls-2" x="224.2" y="163.45" width="9.89" height="5.76"/><rect class="cls-2" x="203" y="217.62" width="9.89" height="5.76"/><rect class="cls-2" x="222.93" y="217.62" width="9.89" height="5.76"/><path class="cls-3" d="M368.8,443.53l2.78-2.21-2.78-2.18Z" transform="translate(-143.28 -220.83)"/><path class="cls-3" d="M371.65,439.14v4.39l2.78-2.21Z" transform="translate(-143.28 -220.83)"/><path class="cls-3" d="M353.52,443.53l-2.78-2.21,2.78-2.18Z" transform="translate(-143.28 -220.83)"/><path class="cls-3" d="M350.67,439.14v4.39l-2.78-2.21Z" transform="translate(-143.28 -220.83)"/><path class="cls-3" d="M369.17,422.77l2.78-2.21-2.78-2.18Z" transform="translate(-143.28 -220.83)"/><rect class="cls-3" x="229.05" y="197.54" width="0.6" height="4.39"/><path class="cls-3" d="M353,422.52l-2.78-2.21,2.78-2.18Z" transform="translate(-143.28 -220.83)"/><rect class="cls-3" x="205.95" y="197.3" width="0.6" height="4.39"/><polygon class="cls-3" points="228.46 189.18 226.57 189.18 226.57 187.29 225.97 187.29 225.97 189.18 224.07 189.18 224.07 189.78 225.97 189.78 225.97 191.68 226.57 191.68 226.57 189.78 228.46 189.78 228.46 189.18"/><rect class="cls-3" x="352.37" y="408.12" width="0.6" height="4.39" transform="translate(-200.92 542.16) rotate(-90)"/><path class="cls-3" d="M367.17,433l2.78-2.21-2.78-2.19Z" transform="translate(-143.28 -220.83)"/><rect class="cls-3" x="227.05" y="207.8" width="0.6" height="4.39"/><rect class="cls-3" x="228.04" y="207.8" width="0.6" height="4.39"/><rect class="cls-3" x="207.18" y="207.8" width="4.75" height="4.39"/><circle class="cls-4" cx="229.14" cy="166.59" r="1.73"/><rect class="cls-2" x="228.71" y="164.18" width="0.86" height="2.45"/><rect class="cls-3" x="228.87" y="164.18" width="0.53" height="2"/></svg>