<svg id="Layer_1" data-name="Layer 1" xmlns="http://www.w3.org/2000/svg" viewBox="0 0 42.72 92.12"><defs><style>.cls-1{fill:#6d6e71;stroke:#231f20;}.cls-1,.cls-4{stroke-miterlimit:10;}.cls-2,.cls-4{fill:#231f20;}.cls-3{fill:#fff;}.cls-4{stroke:#fff;stroke-width:0.75px;}</style></defs><title>cdremote</title><rect class="cls-1" x="0.5" y="0.5" width="41.72" height="91.12"/><rect class="cls-2" x="6.4" y="41.52" width="9.89" height="5.76"/><rect class="cls-2" x="8.1" y="52.03" width="9.89" height="5.76"/><rect class="cls-2" x="24.81" y="52.03" width="9.89" height="5.76"/><rect class="cls-2" x="8.11" y="31.51" width="9.89" height="5.76"/><rect class="cls-2" x="24.83" y="31.51" width="9.89" height="5.76"/><rect class="cls-2" x="26.34" y="41.52" width="9.89" height="5.76"/><rect class="cls-2" x="27.7" y="8.36" width="9.89" height="5.76"/><rect class="cls-2" x="6.5" y="62.53" width="9.89" height="5.76"/><rect class="cls-2" x="26.44" y="62.53" width="9.89" height="5.76"/><path class="cls-3" d="M368.8,443.53l2.78-2.21-2.78-2.18Z" transform="translate(-339.77 -375.93)"/><path class="cls-3" d="M371.65,439.14v4.39l2.78-2.21Z" transform="translate(-339.77 -375.93)"/><path class="cls-3" d="M353.52,443.53l-2.78-2.21,2.78-2.18Z" transform="translate(-339.77 -375.93)"/><path class="cls-3" d="M350.67,439.14v4.39l-2.78-2.21Z" transform="translate(-339.77 -375.93)"/><path class="cls-3" d="M369.17,422.77l2.78-2.21-2.78-2.18Z" transform="translate(-339.77 -375.93)"/><rect class="cls-3" x="32.56" y="42.45" width="0.6" height="4.39"/><path class="cls-3" d="M353,422.52l-2.78-2.21,2.78-2.18Z" transform="translate(-339.77 -375.93)"/><rect class="cls-3" x="9.46" y="42.2" width="0.6" height="4.39"/><polygon class="cls-3" points="31.97 34.09 30.07 34.09 30.07 32.2 29.47 32.2 29.47 34.09 27.57 34.09 27.57 34.69 29.47 34.69 29.47 36.59 30.07 36.59 30.07 34.69 31.97 34.69 31.97 34.09"/><rect class="cls-3" x="352.37" y="408.12" width="0.6" height="4.39" transform="translate(-397.41 387.07) rotate(-90)"/><path class="cls-3" d="M367.17,433l2.78-2.21-2.78-2.19Z" transform="translate(-339.77 -375.93)"/><rect class="cls-3" x="30.56" y="52.71" width="0.6" height="4.39"/><rect class="cls-3" x="31.54" y="52.71" width="0.6" height="4.39"/><rect class="cls-3" x="10.68" y="52.71" width="4.75" height="4.39"/><circle class="cls-4" cx="32.64" cy="11.5" r="1.73"/><rect class="cls-2" x="32.22" y="9.08" width="0.86" height="2.45"/><rect class="cls-3" x="32.38" y="9.08" width="0.53" height="2"/></svg>